# xmcd
#
# Track frame offsets:
#	150
#	17053
#	32042
#	44857
#	60673
#	74150
#	85056
#	98961
#	110470
#	125059
#	137573
#	156299
#	176227
#	191400
#
# Disc length: 2843 seconds
#
# Revision: 0
# Processed by: cddbd v1.5.1PL2 Copyright (c) Steve Scherf et al.
# Submitted via: dBpowerAMP V4.0
#
DISCID=cf0b190e
DTITLE=Various Artist - Country Music Superstars [CD2 of 2)
DYEAR=2005
DGENRE=Country
TTITLE0=Janie Fricke - It Ain't Easy Being Easy
TTITLE1=Janie Fricke - You Don't Know Love
TTITLE2=Janie Fricke - He's A Heartache (Lookin' For A Place To Happen)
TTITLE3=Janie Fricke - Always Have Always Will
TTITLE4=Janie Fricke - Your Heart's Not In It
TTITLE5=Janie Fricke - She's Single Again
TTITLE6=Janie Fricke - Somebody Else's Fire
TTITLE7=Janie Fricke - If The Fall Don't Get You
TTITLE8=Exile - Woke Up In Love
TTITLE9=Exile - Give Me One More Chance
TTITLE10=Exile - I Can't Get Close Enough
TTITLE11=Exile - Super Love
TTITLE12=Exile - Keep It In The Middle Of The Road
TTITLE13=Exile - Kiss You All Over
EXTD=
EXTT0=
EXTT1=
EXTT2=
EXTT3=
EXTT4=
EXTT5=
EXTT6=
EXTT7=
EXTT8=
EXTT9=
EXTT10=
EXTT11=
EXTT12=
EXTT13=
PLAYORDER=
